PathFileType	4	(X/Y/Z)	c:/Users/goper/Files/vsCode/490R/osim_files/C06/C06_ROM.trc
DataRate	CameraRate	NumFrames	NumMarkers	Units                	OrigDataRate	OrigDataStartFrame	OrigNumFrames
250.00	250.00	8	36	mm	250.0	428	3421
                Frame#	Time	LPSIS			LASIS			LTH1			LTH2			LTH3			LTH4			LLFE			LMFE			LSH1			LSH2			LSH3			LSH4			LLMAL			LMMAL			LCAL			LMTP5			LTOE			LMTP1			RPSIS			RASIS			RTH1			RTH2			RTH3			RTH4			RLFE			RMFE			RSH1			RSH2			RSH3			RSH4			RLMAL			RMMAL			RCAL			RMTP1			RTOE			RMTP5		
		X1	Y1	Z1	X2	Y2	Z2	X3	Y3	Z3	X4	Y4	Z4	X5	Y5	Z5	X6	Y6	Z6	X7	Y7	Z7	X8	Y8	Z8	X9	Y9	Z9	X10	Y10	Z10	X11	Y11	Z11	X12	Y12	Z12	X13	Y13	Z13	X14	Y14	Z14	X15	Y15	Z15	X16	Y16	Z16	X17	Y17	Z17	X18	Y18	Z18	X19	Y19	Z19	X20	Y20	Z20	X21	Y21	Z21	X22	Y22	Z22	X23	Y23	Z23	X24	Y24	Z24	X25	Y25	Z25	X26	Y26	Z26	X27	Y27	Z27	X28	Y28	Z28	X29	Y29	Z29	X30	Y30	Z30	X31	Y31	Z31	X32	Y32	Z32	X33	Y33	Z33	X34	Y34	Z34	X35	Y35	Z35	X36	Y36	Z36

428	1.70800	-243.28165	967.12103	418.91534	-51.12976	972.33923	332.34039	-135.56979	796.52234	246.90303	-125.24780	734.95947	238.31967	-61.53075	799.93805	260.40085	-60.58911	739.34088	250.45111	-145.59625	475.51297	247.32074	-149.86693	438.26263	357.44846	-243.66428	393.10251	213.73311	-249.83279	349.85056	208.21272	-180.38544	378.22208	211.70323	-196.74168	337.52655	205.39774	-295.09344	102.03431	208.01534	-285.13303	108.71060	286.87289	-366.68182	78.91679	250.81184	-193.94031	28.17048	184.02855	-141.19258	51.92559	252.51074	-169.55244	37.13938	297.98044	-251.37756	967.41315	489.48987	-71.62110	979.64886	582.87885	-166.67589	798.06628	670.23022	-161.31076	735.57800	673.08374	-91.45714	797.18860	665.16217	-96.58044	734.64044	669.65454	-195.61156	467.81448	657.21594	-166.66783	464.38519	554.44049	-269.01648	409.00162	677.98938	-276.37769	361.00272	685.05817	-211.36766	390.76993	679.89917	-226.76624	347.23218	686.83649	-304.33575	100.24075	677.76874	-275.02045	114.32281	599.02295	-372.75824	72.92960	633.69580	-169.73277	44.92157	605.14978	-147.93878	49.77626	645.88739	-197.15535	25.78621	712.23596
429	1.71200	-243.22510	967.12872	417.39697	-51.22865	972.90063	330.54361	-135.62186	796.83612	245.06659	-125.06368	735.26129	236.31985	-61.57575	800.28674	258.58249	-60.64228	739.62878	248.78087	-145.55447	475.61502	246.16060	-149.57645	438.64191	356.43369	-243.57602	393.14465	212.90681	-249.77702	349.77060	207.14388	-180.30623	378.22525	210.81358	-196.67738	337.53192	204.63361	-295.05026	102.06895	207.86143	-285.03287	108.93204	286.71823	-366.65381	79.04700	250.75452	-193.92953	28.11193	183.99130	-141.15948	51.92044	252.44948	-169.52161	37.18229	297.94046	-251.23688	967.07410	487.91431	-71.45060	979.56329	581.16650	-166.27937	797.94714	668.41534	-160.26688	735.77917	671.57501	-91.07216	797.15137	663.45068	-96.12076	734.67297	668.05682	-194.86778	467.76276	656.00958	-165.89761	464.11331	553.33752	-268.42834	409.09650	676.96356	-275.88498	361.08414	684.15363	-210.76372	390.81631	678.95929	-226.19899	347.30881	685.97626	-304.15701	100.45667	677.60992	-274.94357	114.28056	598.84460	-372.72708	73.09408	633.63342	-169.71739	44.91054	605.11505	-147.87839	49.81485	645.84845	-197.16055	25.87026	712.20306
430	1.71600	-243.12936	967.13391	415.94388	-51.40589	973.37134	328.81219	-135.65533	797.10291	243.15565	-125.31194	735.50385	234.74539	-61.69116	800.56158	256.84821	-60.71294	739.94800	247.09814	-145.45911	475.73047	244.96327	-149.36687	438.92551	355.32654	-243.48892	393.17389	212.02287	-249.68503	349.88574	206.66934	-180.31058	378.22635	210.01331	-196.65550	337.58331	204.04837	-294.99100	102.09994	207.69699	-284.96326	109.10594	286.52301	-366.58667	79.19202	250.70753	-193.90932	28.04140	183.97124	-141.31107	51.69971	252.37268	-169.49731	37.21592	297.88354	-251.42870	966.77325	486.36743	-71.40417	979.41125	579.47156	-165.95116	797.82507	666.53271	-160.30222	735.08038	669.31073	-90.73668	797.11707	661.73785	-95.75078	734.60858	666.45105	-194.14485	467.72256	654.80377	-165.17102	463.77191	552.22748	-267.80273	409.19940	675.87866	-275.22192	361.23776	683.21698	-210.15486	390.82809	677.95251	-225.62360	347.34164	685.14349	-304.05530	100.72268	677.50470	-274.84100	114.25398	598.63123	-372.62643	73.22691	633.54773	-169.68040	44.88375	605.07611	-147.81300	49.80300	645.81494	-197.13339	25.94060	712.17871
431	1.72000	-243.30475	967.25854	414.37173	-51.51569	973.90259	327.03360	-135.77841	797.39233	241.29950	-125.42315	735.79095	232.96579	-61.81095	800.90643	255.07346	-60.77085	740.28662	245.39662	-145.40755	475.84863	243.86736	-149.02859	439.37796	354.28333	-243.44881	393.18842	211.26962	-249.61055	349.88623	205.72105	-180.15292	378.30414	209.05154	-196.57132	337.50418	203.18495	-294.92908	102.14437	207.54791	-284.90103	109.27168	286.37442	-366.52878	79.32607	250.64783	-193.88596	27.98206	183.95288	-141.26183	51.67383	252.29727	-169.45555	37.23676	297.86423	-251.50908	966.59485	484.85696	-71.34021	979.16956	577.83142	-165.70178	797.61957	664.75409	-160.00652	735.07648	667.86621	-90.46909	797.09991	660.01599	-95.39050	734.59180	664.83417	-193.48795	467.59821	653.68970	-164.32036	463.52289	551.07690	-267.20184	409.21259	674.93164	-274.63312	361.30203	682.31726	-209.49225	390.80859	677.01654	-225.12231	347.39532	684.22192	-303.83984	100.82966	677.28278	-274.68042	114.21961	598.42889	-372.51151	73.32437	633.46869	-169.63629	44.86866	605.04340	-147.73936	49.81872	645.76263	-197.12149	25.98065	712.14270
432	1.72400	-243.35016	967.34448	412.90961	-51.75383	974.40503	325.27832	-135.88159	797.69647	239.36992	-125.52158	736.10034	231.19576	-61.92590	801.27545	253.28792	-60.92664	740.57422	243.77002	-145.35402	475.97876	242.67717	-148.58879	439.79428	353.10696	-243.40848	393.24951	210.35413	-249.61914	349.77545	204.90143	-180.20419	378.31351	208.23308	-196.51390	337.54810	202.35899	-294.86261	102.18243	207.40881	-284.79288	109.41779	286.23761	-366.44595	79.45910	250.61035	-193.89050	27.92733	183.92387	-140.68645	52.04762	252.13365	-169.41907	37.23454	297.82040	-251.30997	966.29523	483.36530	-71.25182	979.00482	576.16754	-165.50032	797.48218	662.90948	-159.77129	734.87128	666.10266	-90.30122	797.06781	658.26349	-94.99638	734.56317	663.16418	-192.81511	467.52539	652.51953	-163.62131	463.09570	549.96967	-266.60544	409.24875	673.85614	-274.02774	361.37057	681.41656	-208.94980	390.77414	676.03229	-224.60927	347.42267	683.33112	-303.71454	100.99531	677.12585	-274.51547	114.21712	598.19257	-372.44641	73.45956	633.44623	-169.59428	44.84198	605.02069	-147.69533	49.81937	645.73657	-197.11420	26.03521	712.11993
433	1.72800	-243.26692	967.49091	411.32135	-52.01375	974.88788	323.54755	-136.05367	797.97583	237.45810	-125.32351	736.44159	229.13615	-62.05397	801.61230	251.50983	-61.05880	740.94812	242.01730	-145.26709	476.12839	241.47360	-148.64240	440.13235	352.12701	-243.38174	393.30966	209.49762	-249.59247	349.94196	204.51353	-180.11473	378.36475	207.27605	-196.43851	337.61023	201.55817	-294.82089	102.21846	207.26930	-284.70963	109.60112	286.06995	-366.40402	79.58083	250.55380	-193.86041	27.89320	183.88843	-141.19414	51.61622	252.21458	-169.41124	37.25146	297.79016	-251.34245	966.07849	481.82693	-71.24539	978.77832	574.47711	-165.34430	797.32349	661.00165	-159.39493	734.72565	664.39307	-90.15824	796.99609	656.56952	-94.73349	734.48181	661.59979	-192.26382	467.48520	651.32263	-162.73045	462.86810	548.85278	-265.90063	409.43481	672.82611	-273.50397	361.48126	680.46790	-208.48262	390.70795	674.99200	-224.11729	347.43399	682.48981	-303.64557	101.21506	676.97284	-274.34787	114.23429	597.95795	-372.40344	73.60043	633.40308	-169.57494	44.82569	604.97375	-147.67493	49.80090	645.68311	-197.11813	26.09026	712.07471
434	1.73200	-243.59451	967.61200	409.78506	-52.25661	975.44647	321.75439	-136.26759	798.28992	235.57898	-125.79810	736.66547	227.64331	-62.22477	801.92950	249.68167	-61.19434	741.25317	240.31615	-145.22202	476.31400	240.28568	-148.45689	440.57056	350.99689	-243.35538	393.33954	208.59064	-249.42894	349.91006	203.38876	-180.09436	378.42859	206.37796	-196.40887	337.65909	200.76488	-294.74622	102.25148	207.15549	-284.63046	109.79065	285.87161	-366.32574	79.69733	250.51552	-193.87122	27.86247	183.85773	-141.18898	51.59541	252.18707	-169.42323	37.28453	297.76627	-251.46385	965.92657	480.26776	-71.21151	978.55029	572.87305	-165.28720	797.13593	659.08649	-159.06970	734.35693	662.25720	-90.02718	797.02637	654.78998	-94.53133	734.48444	659.92047	-191.62721	467.38245	650.20941	-162.14725	462.46875	547.74164	-265.45380	409.46609	671.85229	-273.01834	361.58295	679.52295	-207.92961	390.74509	674.07416	-223.72356	347.45102	681.61774	-303.55640	101.38686	676.77936	-274.18851	114.24136	597.72485	-372.35605	73.79296	633.36169	-169.55424	44.81934	604.93109	-147.61478	49.81288	645.63177	-197.13399	26.16683	712.05560
435	1.73600	-243.73172	967.76373	408.25616	-52.59948	975.96173	320.00183	-136.41316	798.55896	233.65836	-125.96324	736.93683	225.86153	-62.48739	802.26831	247.93742	-61.35544	741.57379	238.65120	-145.24678	476.40091	239.11292	-148.07339	441.13208	349.85196	-243.33780	393.38651	207.73393	-249.53210	349.79456	202.67433	-180.06686	378.42816	205.46400	-196.38022	337.67303	199.95316	-294.68787	102.27894	207.00380	-284.50705	110.02535	285.70007	-366.29727	79.85980	250.44913	-193.84956	27.82575	183.81984	-141.15735	51.59199	252.12579	-169.41180	37.32537	297.74039	-251.54620	965.69226	478.82071	-71.24369	978.33990	571.15491	-165.16434	797.05713	657.22626	-158.91621	734.23834	660.40680	-89.98487	796.97925	653.07843	-94.39832	734.44232	658.27252	-191.08463	467.31134	649.02148	-161.47523	462.14804	546.65454	-264.89062	409.56506	670.78406	-272.53711	361.65482	678.59552	-207.41324	390.73724	673.07111	-223.24031	347.57761	680.68634	-303.42542	101.58941	676.58179	-274.04584	114.26588	597.48639	-372.32880	73.95628	633.28278	-169.51041	44.82746	604.88568	-147.60699	49.83446	645.57660	-197.13602	26.27264	712.02246
